<svg version="1" xmlns="http://www.w3.org/2000/svg" width="1080" height="1080" viewBox="0 0 810.000000 810.000000"><path d="M142.6 255.7l-10.8.4.7 3.6c1 5.2 16.5 56.7 17.3 57.5.4.4 12.5.9 26.7 1l26 .3-.3 80c-.3 79-.8 92.5-3.8 104.3-4.9 18.9-16.5 30.8-44.9 45.7-6 3.2-11.1 5.9-11.3 6.1-.6.4 26.9 53.3 28.4 54.9 1.8 1.8 4.6.8 20.8-6.9 34.6-16.4 59.1-36.9 70-58.4 7.2-14.2 11.3-30.7 12.5-50.2.6-8 1.1-64.9 1.3-126.5l.3-112h-61c-33.5-.1-65.9.1-71.9.2zM303.7 255.7l-10.8.4.6 3.2c.4 1.8 4.4 13.3 8.9 25.7l8.1 22.5 43.3.3 43.2.2v-53l-41.2.2c-22.7.1-46.2.4-52.1.5z"/><path d="M411 291.3v36.4l-27.2.6c-29 .7-34.7 1.3-47.2 5.4-9.8 3.2-23.6 12.3-30.6 20.1-6.7 7.4-12.5 19.4-15 30.7s-2.7 32.3-.5 45.1c4.8 27.1 19.2 53.5 40.1 73.3 13.4 12.7 27.5 21.7 43.4 27.7l7.5 2.8 47 .6c25.9.3 47.3.3 47.8 0 .4-.3.6-63.1.5-139.6l-.3-138.9-32.7-.3-32.8-.2v36.3zm-.2 139.9l.2 46.8h-3.5c-8.2 0-19.6-5.5-28.5-13.7-14.4-13.3-22-29.4-22.8-48.4-.7-15.7 2.7-23.7 12.2-28.6 3.6-1.9 16.6-3.1 31.6-2.9l10.5.1.3 46.7zM505 255.9c-10.4.6-10.5.6-10.2 3 .3 2.2 9.3 27.7 15.2 43.3l2.1 5.8H599l-.2-26.3-.3-26.2-41.5-.1c-22.8 0-46.2.2-52 .5z"/><path d="M612 291.3v36.4l-27.7.6c-32.2.8-40.7 2.2-53.8 8.7-29.4 14.6-42 38.5-40.2 76.4.9 19.5 4.8 34.5 13.3 51.2 12.4 24.5 32.2 45.4 55.4 58.6 2.5 1.4 8.8 4.3 14 6.4l9.5 3.8 20.5.3c11.3.2 32.8.4 47.8.6l27.2.2V255h-66v36.3zm0 139.7v47h-3.5c-2 0-7.1-1.3-11.3-3-17.5-6.7-32.4-24.4-37.9-45-2.1-8-2.4-24.9-.4-30.3 1.7-5 6.7-10.6 11.1-12.5 3.8-1.7 15.3-2.8 31.8-3l10.2-.2v47z"/></svg>